<svg width="13" height="12" viewBox="0 0 13 12" fill="none" xmlns="http://www.w3.org/2000/svg">
<path fill-rule="evenodd" clip-rule="evenodd" d="M12.1842 2.79605C11.9361 2.51528 11.5753 2.35379 11.1959 2.35379H4.47858C4.21976 2.35379 4.00971 2.55932 4.00971 2.81257C4.00971 3.06581 4.21976 3.27134 4.47858 3.27134H11.1959C11.3428 3.27134 11.4341 3.34964 11.4753 3.39613C11.5166 3.44323 11.5828 3.54294 11.5616 3.68485L10.9683 7.697C10.9214 8.01141 10.6414 8.24875 10.3163 8.24875H3.49521C3.1495 8.24875 2.86755 7.99489 2.8388 7.65846L2.23677 0.64103C2.21927 0.433052 2.05985 0.262387 1.8498 0.226909L0.548853 0.00608468C0.290664 -0.0342876 0.050604 0.13026 0.00684309 0.380445C-0.0369178 0.630019 0.13375 0.867359 0.388813 0.91079L1.3328 1.07044L1.90419 7.73492C1.97421 8.55093 2.65813 9.1663 3.49521 9.1663H10.3163C11.1046 9.1663 11.7835 8.5913 11.896 7.82851L12.4899 3.81637C12.5443 3.44812 12.4324 3.07682 12.1842 2.79605ZM2.44318 11.0626C2.44318 10.5518 2.86826 10.1358 3.39024 10.1358C3.91221 10.1358 4.33667 10.5518 4.33667 11.0626C4.33667 11.5733 3.91221 11.9887 3.39024 11.9887C2.86826 11.9887 2.44318 11.5733 2.44318 11.0626ZM9.47791 11.0626C9.47791 10.5518 9.9024 10.1358 10.4244 10.1358C10.9465 10.1358 11.3716 10.5518 11.3716 11.0626C11.3716 11.5733 10.9465 11.9887 10.4244 11.9887C9.9024 11.9887 9.47791 11.5733 9.47791 11.0626ZM9.78314 5.07378C9.78314 5.32703 9.57308 5.53256 9.31426 5.53256H7.58064C7.32119 5.53256 7.11176 5.32703 7.11176 5.07378C7.11176 4.82053 7.32119 4.615 7.58064 4.615H9.31426C9.57308 4.615 9.78314 4.82053 9.78314 5.07378Z" fill="#200E32"/>
</svg>
