<svg width="46" height="10" viewBox="0 0 46 10" fill="none" xmlns="http://www.w3.org/2000/svg">
<path d="M2.51953 5.99414V9H0.761719V0.46875H4.08984C4.73047 0.46875 5.29297 0.585938 5.77734 0.820312C6.26562 1.05469 6.64062 1.38867 6.90234 1.82227C7.16406 2.25195 7.29492 2.74219 7.29492 3.29297C7.29492 4.12891 7.00781 4.78906 6.43359 5.27344C5.86328 5.75391 5.07227 5.99414 4.06055 5.99414H2.51953ZM2.51953 4.57031H4.08984C4.55469 4.57031 4.9082 4.46094 5.15039 4.24219C5.39648 4.02344 5.51953 3.71094 5.51953 3.30469C5.51953 2.88672 5.39648 2.54883 5.15039 2.29102C4.9043 2.0332 4.56445 1.90039 4.13086 1.89258H2.51953V4.57031ZM12.439 4.24805C12.2085 4.2168 12.0054 4.20117 11.8296 4.20117C11.189 4.20117 10.7691 4.41797 10.5698 4.85156V9H8.87648V2.66016H10.4761L10.523 3.41602C10.8628 2.83398 11.3335 2.54297 11.9351 2.54297C12.1226 2.54297 12.2984 2.56836 12.4624 2.61914L12.439 4.24805ZM13.2647 5.77148C13.2647 5.14258 13.3858 4.58203 13.628 4.08984C13.8702 3.59766 14.2178 3.2168 14.6709 2.94727C15.128 2.67773 15.6573 2.54297 16.2588 2.54297C17.1143 2.54297 17.8116 2.80469 18.3506 3.32812C18.8936 3.85156 19.1963 4.5625 19.2588 5.46094L19.2705 5.89453C19.2705 6.86719 18.9991 7.64844 18.4561 8.23828C17.9131 8.82422 17.1846 9.11719 16.2705 9.11719C15.3565 9.11719 14.626 8.82422 14.0791 8.23828C13.5362 7.65234 13.2647 6.85547 13.2647 5.84766V5.77148ZM14.958 5.89453C14.958 6.49609 15.0713 6.95703 15.2979 7.27734C15.5245 7.59375 15.8487 7.75195 16.2705 7.75195C16.6807 7.75195 17.001 7.5957 17.2315 7.2832C17.462 6.9668 17.5772 6.46289 17.5772 5.77148C17.5772 5.18164 17.462 4.72461 17.2315 4.40039C17.001 4.07617 16.6768 3.91406 16.2588 3.91406C15.8448 3.91406 15.5245 4.07617 15.2979 4.40039C15.0713 4.7207 14.958 5.21875 14.958 5.89453ZM20.5298 5.7832C20.5298 4.79492 20.7505 4.00781 21.192 3.42188C21.6373 2.83594 22.2447 2.54297 23.0142 2.54297C23.6314 2.54297 24.1412 2.77344 24.5435 3.23438V0H26.2427V9H24.7134L24.6314 8.32617C24.2095 8.85352 23.6666 9.11719 23.0025 9.11719C22.2564 9.11719 21.6568 8.82422 21.2037 8.23828C20.7545 7.64844 20.5298 6.83008 20.5298 5.7832ZM22.2232 5.90625C22.2232 6.5 22.3267 6.95508 22.5338 7.27148C22.7408 7.58789 23.0416 7.74609 23.4361 7.74609C23.9595 7.74609 24.3287 7.52539 24.5435 7.08398V4.58203C24.3326 4.14062 23.9673 3.91992 23.4478 3.91992C22.6314 3.91992 22.2232 4.58203 22.2232 5.90625ZM31.8321 8.35547C31.4141 8.86328 30.836 9.11719 30.0977 9.11719C29.418 9.11719 28.8985 8.92188 28.5391 8.53125C28.1837 8.14062 28.002 7.56836 27.9942 6.81445V2.66016H29.6876V6.75586C29.6876 7.41602 29.9884 7.74609 30.5899 7.74609C31.1641 7.74609 31.5587 7.54688 31.7735 7.14844V2.66016H33.4727V9H31.879L31.8321 8.35547ZM37.8668 7.75195C38.1793 7.75195 38.4332 7.66602 38.6285 7.49414C38.8238 7.32227 38.9254 7.09375 38.9332 6.80859H40.5211C40.5172 7.23828 40.4 7.63281 40.1695 7.99219C39.9391 8.34766 39.6227 8.625 39.2203 8.82422C38.8219 9.01953 38.3805 9.11719 37.8961 9.11719C36.9898 9.11719 36.275 8.83008 35.7516 8.25586C35.2281 7.67773 34.9664 6.88086 34.9664 5.86523V5.75391C34.9664 4.77734 35.2262 3.99805 35.7457 3.41602C36.2652 2.83398 36.9781 2.54297 37.8844 2.54297C38.6773 2.54297 39.3121 2.76953 39.7887 3.22266C40.2691 3.67188 40.5133 4.27148 40.5211 5.02148H38.9332C38.9254 4.69336 38.8238 4.42773 38.6285 4.22461C38.4332 4.01758 38.1754 3.91406 37.8551 3.91406C37.4605 3.91406 37.1617 4.05859 36.9586 4.34766C36.7594 4.63281 36.6598 5.09766 36.6598 5.74219V5.91797C36.6598 6.57031 36.7594 7.03906 36.9586 7.32422C37.1578 7.60938 37.4605 7.75195 37.8668 7.75195ZM43.9952 1.10156V2.66016H45.0792V3.90234H43.9952V7.06641C43.9952 7.30078 44.0402 7.46875 44.13 7.57031C44.2198 7.67188 44.3917 7.72266 44.6456 7.72266C44.8331 7.72266 44.9991 7.70898 45.1437 7.68164V8.96484C44.8116 9.06641 44.4698 9.11719 44.1183 9.11719C42.9308 9.11719 42.3253 8.51758 42.3019 7.31836V3.90234H41.3761V2.66016H42.3019V1.10156H43.9952Z" fill="black"/>
</svg>
