<svg width="10" height="12" viewBox="0 0 10 12" fill="none" xmlns="http://www.w3.org/2000/svg">
<circle cx="5" cy="3" r="2.65" stroke="#200E32" stroke-width="0.7"/>
<path d="M9.65 8.5C9.65 8.73913 9.53953 9.02441 9.29409 9.33365C9.05076 9.64025 8.69273 9.94665 8.24869 10.2196C7.35923 10.7663 6.17203 11.15 5 11.15C3.82797 11.15 2.64077 10.7663 1.75131 10.2196C1.30727 9.94665 0.94924 9.64025 0.705906 9.33365C0.460469 9.02441 0.35 8.73913 0.35 8.5C0.35 8.28213 0.440609 8.11356 0.641369 7.96343C0.857043 7.80214 1.19195 7.6713 1.64175 7.57438C2.53926 7.38098 3.75304 7.35 5 7.35C6.24696 7.35 7.46074 7.38098 8.35825 7.57438C8.80805 7.6713 9.14296 7.80214 9.35863 7.96343C9.55939 8.11356 9.65 8.28213 9.65 8.5Z" stroke="#200E32" stroke-width="0.7"/>
</svg>
